<?xml version="1.0" encoding="UTF-8" standalone="no"?>
<!-- Created with Inkscape (http://www.inkscape.org/) -->

<svg
   xmlns:dc="http://purl.org/dc/elements/1.1/"
   xmlns:cc="http://creativecommons.org/ns#"
   xmlns:rdf="http://www.w3.org/1999/02/22-rdf-syntax-ns#"
   xmlns:svg="http://www.w3.org/2000/svg"
   xmlns="http://www.w3.org/2000/svg"
   xmlns:sodipodi="http://sodipodi.sourceforge.net/DTD/sodipodi-0.dtd"
   xmlns:inkscape="http://www.inkscape.org/namespaces/inkscape"
   width="64"
   height="64"
   id="svg3344"
   version="1.1"
   inkscape:version="0.91 r13725"
   viewBox="0 0 64 64"
   sodipodi:docname="Grid-icon-1.svg">
  <defs
     id="defs3346" />
  <sodipodi:namedview
     id="base"
     pagecolor="#ffffff"
     bordercolor="#666666"
     borderopacity="1.0"
     inkscape:pageopacity="0.0"
     inkscape:pageshadow="2"
     inkscape:zoom="9.78125"
     inkscape:cx="32"
     inkscape:cy="31.693291"
     inkscape:current-layer="layer1"
     showgrid="true"
     inkscape:document-units="px"
     inkscape:grid-bbox="true"
     showguides="false"
     inkscape:window-width="1536"
     inkscape:window-height="801"
     inkscape:window-x="-8"
     inkscape:window-y="-8"
     inkscape:window-maximized="1">
    <inkscape:grid
       type="xygrid"
       id="grid3352" />
  </sodipodi:namedview>
  <metadata
     id="metadata3349">
    <rdf:RDF>
      <cc:Work
         rdf:about="">
        <dc:format>image/svg+xml</dc:format>
        <dc:type
           rdf:resource="http://purl.org/dc/dcmitype/StillImage" />
        <dc:title></dc:title>
      </cc:Work>
    </rdf:RDF>
  </metadata>
  <g
     id="layer1"
     inkscape:label="Layer 1"
     inkscape:groupmode="layer">
    <circle
       style="fill:#185e99;fill-opacity:1"
       id="path3358"
       cx="32"
       cy="32"
       r="32" />
    <path
       style="fill:#ffffff;fill-opacity:1"
       d="m 39.709238,45.336741 c -0.266568,-1.283539 -1.090645,-2.464839 -1.737077,-2.490066 -0.63914,-0.02494 -0.917506,0.05359 -1.851316,0.522317 -1.170244,0.587401 -2.344565,0.968558 -3.622788,1.17587 -1.061398,0.172146 -4.089184,0.202051 -5.245256,0.05181 -0.40112,-0.05213 -1.597286,-0.168634 -2.658147,-0.258896 -2.646687,-0.225192 -3.75369,-0.455139 -4.893696,-1.016519 -1.314461,-0.647287 -1.430346,-0.779614 -1.580187,-1.804379 -0.127719,-0.87348 -0.09645,-1.539263 0.153129,-3.260006 0.07748,-0.534185 0.186579,-1.45545 0.242447,-2.047256 0.250393,-2.652399 1.399356,-5.91279 3.94419,-11.192361 0.504181,-1.045984 1.021016,-2.344352 1.433421,-3.60097 1.020264,-3.108795 1.290308,-3.458566 4.140925,-5.363466 3.166158,-2.115758 4.311807,-2.496221 5.487022,-1.822208 1.652839,0.947942 2.514541,2.700947 1.826241,3.715215 l -0.250577,0.369245 0.301695,0.301694 c 0.340298,0.340298 0.38065,0.673964 0.120507,0.996482 -0.387533,0.480454 -0.710453,0.547569 -2.650796,0.550935 -2.890413,0.005 -3.973561,0.234613 -4.629121,0.981255 -0.352423,0.401388 -0.926183,2.123644 -1.187697,3.565109 -0.345998,1.907141 -0.269034,6.984766 0.151089,9.968051 l 0.06479,0.460064 0.466267,0.0304 c 0.422158,0.02753 0.556582,-0.0289 1.420928,-0.596459 0.525062,-0.344775 1.073992,-0.674803 1.219843,-0.733394 0.14585,-0.05859 0.978282,-0.113509 1.849847,-0.12204 1.451114,-0.0142 1.641738,-0.03817 2.261875,-0.284382 0.372465,-0.147881 1.108568,-0.535122 1.635782,-0.860535 1.454055,-0.897489 2.203332,-1.237112 3.147609,-1.426709 1.359802,-0.273029 2.891184,-0.04275 4.234269,0.636718 0.732072,0.370356 1.300132,0.402757 2.352993,0.13421 1.096761,-0.279747 1.306672,-0.217001 1.632244,0.487901 0.199371,0.431663 0.223236,0.648349 0.216694,1.967515 -0.0065,1.309907 -0.03988,1.58951 -0.286873,2.402556 -0.55256,1.818914 -1.876082,4.198554 -3.160052,5.681648 -1.096591,1.266657 -2.582759,2.743019 -3.124687,3.10407 -0.380514,0.253513 -0.662136,0.364442 -0.925231,0.364442 -0.378126,0 -0.378247,-1.03e-4 -0.500305,-0.58786 z"
       id="path4163"
       inkscape:connector-curvature="0" />
    <path
       style="fill:#ffffff;fill-opacity:1"
       d="m 39.790415,45.756709 c 0,-0.363206 -0.418972,-1.545906 -0.710464,-2.005541 -0.639995,-1.009169 -1.440151,-1.155841 -2.696342,-0.494254 -0.890413,0.468946 -1.946135,0.862996 -3.085206,1.15156 -1.161916,0.294351 -4.4583,0.372774 -6.440895,0.153233 -0.78722,-0.08717 -1.776358,-0.186296 -2.198083,-0.220274 -3.249903,-0.261848 -4.419566,-0.56511 -5.855021,-1.518049 -0.830236,-0.551159 -0.926973,-1.393442 -0.539632,-4.698526 0.562764,-4.801917 1.107421,-6.547005 3.908979,-12.524435 0.680142,-1.451157 1.308752,-2.990921 1.729928,-4.237414 0.745041,-2.204989 1.081134,-2.868527 1.825766,-3.604543 0.579615,-0.572908 3.76184,-2.739237 4.706338,-3.203882 1.422795,-0.699943 2.274656,-0.78937 3.086122,-0.323976 1.626254,0.932695 2.467057,2.601208 1.857418,3.685914 l -0.2194,0.390368 0.270518,0.321492 c 0.31228,0.371123 0.339784,0.674355 0.08933,0.984862 -0.381613,0.473114 -0.72125,0.547723 -2.497442,0.548617 -2.903232,0.0015 -4.140128,0.251981 -4.766523,0.965405 -0.318656,0.362929 -0.829045,1.796324 -1.084588,3.045995 -0.472614,2.3112 -0.480244,5.706339 -0.02223,9.891915 l 0.117468,1.073482 0.524049,-0.0037 c 0.468337,-0.0033 0.626834,-0.07146 1.490885,-0.64121 0.531761,-0.35064 1.112591,-0.67933 1.290736,-0.730421 0.178145,-0.05109 0.818428,-0.06808 1.422852,-0.03775 1.74316,0.08747 2.649506,-0.212207 4.949483,-1.636502 1.238826,-0.767162 2.117844,-1.034205 3.408257,-1.035421 1.188306,-0.0011 1.851198,0.141538 2.913738,0.627051 1.052245,0.480809 1.419149,0.513285 2.595369,0.229725 l 0.982579,-0.236877 0.28023,0.209222 c 0.184897,0.138046 0.344303,0.414427 0.468568,0.812416 0.278263,0.8912 0.192543,2.819156 -0.18137,4.079232 -0.488436,1.646016 -1.3893,3.366768 -2.622663,5.009585 -0.902319,1.201871 -3.292657,3.639866 -3.844519,3.921169 -0.528638,0.269464 -1.154233,0.297384 -1.154233,0.05151 z"
       id="path4165"
       inkscape:connector-curvature="0" />
    <path
       style="fill:#0066ff;fill-opacity:1"
       d="m 39.846495,45.817252 c -0.02186,-0.07029 -0.138871,-0.44984 -0.26003,-0.84345 -0.4463,-1.44988 -1.030449,-2.095847 -1.895281,-2.095847 -0.385339,0 -0.757617,0.122661 -1.677251,0.552634 -3.158878,1.476925 -5.075454,1.592854 -12.836936,0.776478 -1.863524,-0.196012 -2.984896,-0.515498 -4.032179,-1.148793 -0.719339,-0.434988 -0.906546,-0.70696 -1.039764,-1.510563 -0.122814,-0.740837 -0.07929,-1.518818 0.222972,-3.98605 0.516238,-4.213761 1.140097,-6.193195 3.632,-11.523919 1.174233,-2.511939 1.596971,-3.551085 2.028885,-4.987263 0.390858,-1.299661 0.991626,-2.494461 1.575356,-3.133051 0.568124,-0.621518 3.981625,-2.964092 5.042649,-3.460605 0.366296,-0.17141 1.002069,-0.381728 1.412829,-0.467374 0.739674,-0.154227 0.751837,-0.153272 1.268338,0.09959 1.245414,0.609709 2.310639,1.981032 2.310639,2.974613 0,0.304475 -0.08108,0.627212 -0.219399,0.873319 l -0.2194,0.390368 0.270518,0.321492 c 0.345459,0.410555 0.342416,0.710139 -0.01063,1.046945 -0.450272,0.429556 -0.74857,0.485696 -2.580727,0.485696 -2.673571,0 -3.916327,0.247697 -4.52548,0.901987 -0.562529,0.604212 -1.205055,2.885903 -1.401416,4.976607 -0.183505,1.953815 -0.122548,4.172743 0.212623,7.739747 0.119786,1.274807 0.126958,1.29991 0.387437,1.356002 0.403406,0.08687 0.883014,-0.09357 1.737819,-0.653816 1.188504,-0.778954 1.430428,-0.855502 2.457193,-0.777483 1.740169,0.132227 2.734577,-0.154678 4.790531,-1.382154 0.658229,-0.392986 1.448268,-0.808688 1.755643,-0.923781 1.615265,-0.604817 3.239952,-0.521218 5.011969,0.257892 0.94352,0.414841 1.681722,0.473435 2.659201,0.211069 0.836241,-0.224457 1.068419,-0.19852 1.363642,0.152332 0.372253,0.442398 0.511895,1.27056 0.448381,2.65917 -0.09214,2.014367 -0.852927,4.019426 -2.40511,6.338658 -0.931155,1.391307 -3.739499,4.3504 -4.459613,4.699 -0.484607,0.234595 -0.965752,0.272392 -1.025406,0.08055 z"
       id="path4169"
       inkscape:connector-curvature="0" />
    <path
       style="fill:#0066ff;fill-opacity:1"
       d="m 39.845324,45.817252 c -0.0225,-0.07029 -0.117127,-0.401868 -0.21028,-0.736847 -0.434072,-1.560905 -1.263574,-2.42566 -2.164629,-2.256621 -0.180685,0.0339 -0.848256,0.31053 -1.483492,0.614741 -1.296005,0.620649 -2.234782,0.910318 -3.659766,1.129256 -1.244871,0.191265 -3.668653,0.191692 -5.367413,9.2e-4 -0.73099,-0.08208 -1.943901,-0.199005 -2.695357,-0.259835 -2.88504,-0.233513 -4.580492,-0.711035 -5.614852,-1.581393 -0.777035,-0.653832 -0.779153,-2.083249 -0.01097,-7.40279 0.343429,-2.378184 1.442445,-5.36431 3.748403,-10.184747 0.737511,-1.541711 1.146896,-2.550467 1.452177,-3.578275 0.786335,-2.647392 1.448562,-3.67278 3.064153,-4.744515 0.480885,-0.319005 1.371847,-0.915497 1.979915,-1.325538 1.351869,-0.911612 2.159615,-1.298467 3.136442,-1.502141 l 0.746749,-0.155702 0.568888,0.285674 c 0.728434,0.365791 1.648289,1.263039 1.993726,1.944728 0.353912,0.69841 0.364708,1.392858 0.02934,1.887052 l -0.240362,0.354193 0.29148,0.326223 c 0.160314,0.179423 0.29148,0.435748 0.29148,0.569611 0,0.31717 -0.606089,0.851118 -1.045737,0.921265 -0.18395,0.02935 -1.323592,0.06961 -2.532537,0.08948 -1.913084,0.03143 -2.273505,0.06365 -2.779779,0.248485 -1.079541,0.394124 -1.24064,0.587447 -1.711078,2.053344 -0.591269,1.842408 -0.738536,2.808204 -0.797966,5.233146 -0.04738,1.933093 0.104022,4.779919 0.364284,6.84984 l 0.0707,0.5623 0.516088,-0.0033 c 0.452819,-0.0029 0.614206,-0.07018 1.316444,-0.548739 1.303238,-0.888122 1.482933,-0.943095 2.833716,-0.866885 1.685321,0.09508 2.771245,-0.228057 4.479069,-1.332842 1.480548,-0.957762 2.338576,-1.277767 3.631843,-1.354512 1.138587,-0.06757 2.150603,0.130075 3.187521,0.622506 1.024127,0.486355 1.462858,0.534838 2.47222,0.273199 1.045219,-0.270934 1.257307,-0.268745 1.521317,0.0157 0.625492,0.67391 0.715823,3.034215 0.184874,4.830671 -0.377168,1.276144 -1.150629,2.853535 -2.080424,4.242812 -0.931155,1.391307 -3.739499,4.3504 -4.459613,4.699 -0.484671,0.234626 -0.965185,0.272331 -1.026577,0.08055 l 0,-4e-6 z"
       id="path4171"
       inkscape:connector-curvature="0" />
    <path
       style="fill:#214478;fill-opacity:1"
       d="m 42.765741,48.974295 c -0.0225,-0.07029 -0.117127,-0.401868 -0.21028,-0.736847 -0.434072,-1.560905 -1.263574,-2.42566 -2.164629,-2.256621 -0.180685,0.0339 -0.848256,0.31053 -1.483492,0.614741 -1.296005,0.620649 -2.234782,0.910318 -3.659766,1.129256 -1.244871,0.191265 -3.668653,0.191692 -5.367413,9.2e-4 -0.73099,-0.08208 -1.943901,-0.199005 -2.695357,-0.259835 -2.88504,-0.233513 -4.580492,-0.711035 -5.614852,-1.581393 -0.777035,-0.653832 -0.779153,-2.083249 -0.01097,-7.40279 0.343429,-2.378184 1.442445,-5.36431 3.748403,-10.184747 0.737511,-1.541711 1.146896,-2.550467 1.452177,-3.578275 0.786335,-2.647392 1.448562,-3.67278 3.064153,-4.744515 0.480885,-0.319005 1.371847,-0.915497 1.979915,-1.325538 1.351869,-0.911612 2.159615,-1.298467 3.136442,-1.502141 l 0.746749,-0.155702 0.568888,0.285674 c 0.728434,0.365791 1.648289,1.263039 1.993726,1.944728 0.353912,0.69841 0.364708,1.392858 0.02934,1.887052 l -0.240362,0.354193 0.29148,0.326223 c 0.160314,0.179423 0.29148,0.435748 0.29148,0.569611 0,0.31717 -0.606089,0.851118 -1.045737,0.921265 -0.18395,0.02935 -1.323592,0.06961 -2.532537,0.08948 -1.913084,0.03143 -2.273505,0.06365 -2.779779,0.248485 -1.079541,0.394124 -1.24064,0.587447 -1.711078,2.053344 -0.591269,1.842408 -0.738536,2.808204 -0.797966,5.233146 -0.04738,1.933093 0.104022,4.779919 0.364284,6.84984 l 0.0707,0.5623 0.516088,-0.0033 c 0.452819,-0.0029 0.614206,-0.07018 1.316444,-0.548739 1.303238,-0.888122 1.482933,-0.943095 2.833716,-0.866885 1.685321,0.09508 2.771245,-0.228057 4.479069,-1.332842 1.480548,-0.957762 2.338576,-1.277767 3.631843,-1.354512 1.138587,-0.06757 2.150603,0.130075 3.187521,0.622506 1.024127,0.486355 1.462858,0.534838 2.47222,0.273199 1.045219,-0.270934 1.257307,-0.268745 1.521317,0.0157 0.625492,0.67391 0.715823,3.034215 0.184874,4.830671 -0.377168,1.276144 -1.150629,2.853535 -2.080424,4.242812 -0.931155,1.391307 -3.739499,4.3504 -4.459613,4.699 -0.484671,0.234626 -0.965185,0.272331 -1.026577,0.08055 l 0,-4e-6 z"
       id="path4171-0"
       inkscape:connector-curvature="0" />
  </g>
  <g
     inkscape:groupmode="layer"
     id="layer3"
     inkscape:label="colors" />
  <g
     inkscape:groupmode="layer"
     id="layer2"
     inkscape:label="Layer 2">
    <path
       style="fill:#ffffff"
       d="m 43.739065,31.873495 c -2.037559,-1.17687 -4.4723,-1.210352 -6.52244,-0.04244 -1.847731,1.293483 -3.523676,2.243287 -5.819949,1.824526 -1.625808,-0.309715 -2.840083,2.069098 -4.119502,1.428771 -0.415763,-4.571438 -1.068767,-9.445245 0.827421,-13.802311 1.396024,-1.533783 3.944164,-0.85239 5.798546,-1.079518 1.15843,0.265253 2.71168,-0.948576 1.23778,-1.862672 1.6258,-1.616766 -0.76714,-3.992941 -2.343627,-4.509625 -2.321859,0.0953 -4.17021,1.883803 -6.061216,3.064494 -2.342196,1.300586 -2.639049,3.986373 -3.437749,6.259487 -1.891696,4.001949 -4.026737,7.989241 -4.772017,12.410839 -0.06516,2.280178 -0.967319,4.728223 -0.251975,6.919253 2.376939,2.123017 5.800907,1.662725 8.73722,2.143106 3.265782,0.361613 6.767682,0.255476 9.655579,-1.490734 2.153487,-1.119387 2.844553,1.290835 3.15163,2.841986 1.549845,0.254093 2.671595,-1.826193 3.865328,-2.752235 2.80433,-3.081571 4.606926,-7.043863 4.071938,-10.047901 -0.534987,-3.004037 -1.906148,-0.397322 -4.016967,-1.305026 z"
       id="path4189"
       inkscape:connector-curvature="0"
       sodipodi:nodetypes="cccccccccccccccccc" />
  </g>
</svg>
