<?xml version="1.0" encoding="UTF-8" standalone="no"?>
<!-- Created with Inkscape (http://www.inkscape.org/) -->

<svg
   xmlns:dc="http://purl.org/dc/elements/1.1/"
   xmlns:cc="http://creativecommons.org/ns#"
   xmlns:rdf="http://www.w3.org/1999/02/22-rdf-syntax-ns#"
   xmlns:svg="http://www.w3.org/2000/svg"
   xmlns="http://www.w3.org/2000/svg"
   xmlns:sodipodi="http://sodipodi.sourceforge.net/DTD/sodipodi-0.dtd"
   xmlns:inkscape="http://www.inkscape.org/namespaces/inkscape"
   width="64"
   height="64"
   id="svg3344"
   version="1.1"
   inkscape:version="0.91 r13725"
   viewBox="0 0 64 64"
   sodipodi:docname="Grid-icon-3.svg">
  <defs
     id="defs3346" />
  <sodipodi:namedview
     id="base"
     pagecolor="#ffffff"
     bordercolor="#666666"
     borderopacity="1.0"
     inkscape:pageopacity="0.0"
     inkscape:pageshadow="2"
     inkscape:zoom="9.890625"
     inkscape:cx="32"
     inkscape:cy="18.328392"
     inkscape:current-layer="layer1"
     showgrid="true"
     inkscape:document-units="px"
     inkscape:grid-bbox="true"
     showguides="false"
     inkscape:window-width="1536"
     inkscape:window-height="801"
     inkscape:window-x="-8"
     inkscape:window-y="-8"
     inkscape:window-maximized="1">
    <inkscape:grid
       type="xygrid"
       id="grid3352" />
  </sodipodi:namedview>
  <metadata
     id="metadata3349">
    <rdf:RDF>
      <cc:Work
         rdf:about="">
        <dc:format>image/svg+xml</dc:format>
        <dc:type
           rdf:resource="http://purl.org/dc/dcmitype/StillImage" />
        <dc:title></dc:title>
      </cc:Work>
    </rdf:RDF>
  </metadata>
  <g
     id="layer1"
     inkscape:label="Layer 1"
     inkscape:groupmode="layer">
    <circle
       style="fill:#185e99;fill-opacity:1"
       id="path3358"
       cx="32"
       cy="32"
       r="32" />
    <path
       style="fill:#185e99;fill-opacity:1"
       d="M 28.224,63.850926 C 14.056441,62.398752 1.8511638,50.388786 0.21561912,36.232475 -1.019154,26.713212 2.0859778,16.705163 8.8578609,9.8317457 15.443493,2.8022042 25.290021,-0.8067067 34.85783,0.0779976 49.475912,1.0869335 62.295326,13.4453 63.803448,28.028178 c 1.219937,9.673133 -2.134032,19.80347 -9.143192,26.632081 -6.421283,6.550565 -15.743381,10.000536 -24.88056,9.284809 -0.519221,-0.0183 -1.038673,-0.04015 -1.555696,-0.09414 z M 6.5984,46.481631 c 1.9317796,-1.215548 6.719482,-0.953539 6.869198,-3.373406 -2.47004,-0.02542 -6.0114199,0.993113 -7.835598,2.612647 -0.041666,0.452848 0.4793868,1.152932 0.9664,0.760759 z M 18.206226,44.16 c 4.189163,-1.117466 8.410978,-2.089761 12.617244,-3.168488 1.386824,0.353936 0.954599,4.899196 3.942357,3.173751 2.906436,-0.957838 5.971011,-1.494283 8.808783,-2.625049 1.276567,-1.640312 -1.556951,-4.490074 1.969009,-4.153693 3.808887,-0.98163 7.691916,-1.760332 11.416381,-2.941459 0,-1.523371 0,-3.046742 0,-4.570113 -4.997019,-0.975306 -9.871797,-2.502524 -14.856722,-3.524676 -5.509199,-1.48011 -11.093119,-2.735185 -16.611072,-4.109267 -2.593845,-0.728821 -5.250199,-1.236501 -7.849096,-1.962778 -2.054565,0.389619 -2.084675,7.556793 -1.242947,2.62585 1.688158,-4.289479 2.870488,2.239737 2.913667,3.97066 0.07904,5.041565 0.637623,10.267573 -0.849484,15.14817 -1.322106,3.351248 -2.274689,-1.368494 -2.71678,-2.382393 0.271323,1.25302 0.335938,5.451753 2.45866,4.519485 z M 33.984,43.553716 c -2.34855,-0.983087 -1.73111,-4.110835 1.088,-3.554722 2.374875,-0.512768 5.263326,-1.622179 7.411956,-1.680204 1.527652,3.324391 -2.42782,3.734967 -4.727956,4.31308 -1.219581,0.317748 -2.552249,0.903033 -3.772,0.921846 z M 8.256,39.151882 C 9.4645713,39.046741 14.131796,38.982848 11.966854,37.255233 9.4600697,37.540734 6.7511314,37.394347 4.3761358,38.276987 3.1368969,40.293309 7.5254539,39.108769 8.256,39.151882 Z M 15.7584,39.0032 c -0.478041,-0.179054 0.3697,0.894462 0,0 z m -0.15161,-3.245755 c -0.228127,-3.205569 0.0333,-6.431164 0.06423,-9.626715 -0.617474,4.052161 -0.60118,8.241523 -0.04686,12.299662 0.220816,-0.513439 -0.03993,-1.906357 -0.01737,-2.672947 z m 43.983028,-0.231627 c 0.692647,-0.826382 0.13445,-2.17088 0.314182,-3.209719 -0.104789,-1.005482 0.204275,-2.2158 -0.143892,-3.100823 -2.973903,-1.864835 -2.444744,2.479627 -2.415016,4.345339 -0.267328,1.522623 0.303078,3.054218 2.244726,1.965203 z M 12.416,32.64 C 12.601536,30.093004 7.5419677,31.900234 5.6831688,31.378372 2.2857655,31.3325 5.1849528,33.845407 7.1005333,32.895033 8.8448213,32.764229 10.752648,33.166455 12.416,32.64 Z m 0.09952,-5.831258 C 12.765919,24.314339 7.8725702,25.385525 5.9370523,24.833695 2.4673245,24.719433 5.72582,27.227259 7.4868977,26.590416 c 1.6487912,-0.01444 3.4445003,0.607869 5.0286223,0.218326 z m 1.060896,-5.565245 c 0.105021,-2.564699 -4.8588261,-2.1418 -6.7556162,-3.533847 -3.1490854,1.537181 3.3442382,2.587859 4.7015932,3.323055 0.655102,0.189232 1.373211,0.496653 2.054023,0.210792 z"
       id="path3363"
       inkscape:connector-curvature="0" />
    <path
       style="fill:#ffffff;fill-opacity:1"
       d="m 50.56833,34.970111 c -0.06986,-0.04735 -0.182283,-0.207672 -0.249825,-0.356299 -0.105163,-0.231425 -0.122638,-0.549127 -0.121613,-2.212335 0.0012,-2.094976 0.04871,-2.476652 0.361665,-2.909313 0.149383,-0.206523 0.242356,-0.257157 0.472216,-0.257157 0.329295,0 0.707889,0.163394 0.854227,0.368672 0.1426,0.200032 0.157517,4.531038 0.01696,4.925781 -0.151967,0.426793 -0.960035,0.693793 -1.333632,0.440651 z"
       id="path3394"
       inkscape:connector-curvature="0" />
    <rect
       style="fill:#185e99;fill-opacity:1"
       id="rect3400"
       width="3"
       height="4"
       x="31"
       y="7"
       ry="1" />
    <g
       id="g3406"
       transform="matrix(0.71789753,0,0,0.83515676,9.0178292,5.1427425)">
      <path
         inkscape:connector-curvature="0"
         id="path3368"
         d="M 9.725884,20.374163 C 8.2797962,19.890791 6.8837629,19.370037 6.6235875,19.216933 5.9129259,18.798732 5.8589322,18.376302 6.4623581,17.955521 c 0.2780731,-0.193905 0.3521163,-0.20709 0.5298131,-0.09434 0.4200787,0.266539 1.3611445,0.576642 2.9478803,0.971395 0.8960335,0.222918 1.8514325,0.500586 2.1231105,0.617041 0.931955,0.399482 1.45469,0.959074 1.45469,1.557256 0,0.247097 -0.02411,0.257544 -0.581359,0.251968 -0.451364,-0.0045 -1.169273,-0.202336 -3.210609,-0.884676 z"
         style="fill:#ffffff;fill-opacity:1" />
      <path
         inkscape:connector-curvature="0"
         id="path3372"
         d="M 10.585782,26.862535 C 9.2999978,26.676803 8.3185947,26.593773 7.2492891,26.580256 5.8472226,26.562533 5.3210261,26.398248 4.7103477,25.78757 4.0808228,25.158045 4.5286027,24.865175 5.985466,24.953582 c 0.5560822,0.03374 1.8527646,0.09965 2.8815166,0.146466 1.028752,0.04681 2.0846924,0.140629 2.3465344,0.208481 0.639099,0.165615 1.18441,0.652207 1.257898,1.122448 l 0.05685,0.363792 -0.541542,0.06503 c -0.554138,0.06654 -0.953832,0.06732 -1.400943,0.0027 z"
         style="fill:#ffffff;fill-opacity:1" />
      <path
         inkscape:connector-curvature="0"
         id="path3396"
         d="m 5.4231952,32.956034 c -0.7731179,-0.20848 -1.386716,-0.752977 -1.2500068,-1.109235 0.1124695,-0.293091 0.627228,-0.373161 2.8233361,-0.439166 3.7593995,-0.11299 4.4037275,-0.09889 4.7852165,0.104724 0.341114,0.182064 0.682344,0.77814 0.587276,1.025883 -0.08856,0.230772 -1.711248,0.387347 -3.2998227,0.318403 -1.1139137,-0.04834 -1.6360151,-0.02747 -2.1737378,0.08689 -0.8259938,0.175669 -0.8659333,0.176008 -1.4722613,0.01251 z"
         style="fill:#ffffff;fill-opacity:1" />
      <path
         inkscape:connector-curvature="0"
         id="path3398"
         d="M 4.393049,39.253399 C 4.1864754,39.133081 4.1580919,38.668678 4.342496,38.426267 4.6490376,38.023299 6.8714,37.644707 10.174885,37.432688 l 1.863985,-0.119631 0.233459,0.291756 c 0.128403,0.160465 0.233686,0.370327 0.233962,0.46636 0.0012,0.414991 -0.95305,0.740786 -2.6201422,0.894562 -0.6439538,0.0594 -1.7270936,0.172994 -2.4069775,0.252433 -1.4327532,0.167406 -2.8317706,0.183377 -3.0861224,0.03523 z"
         style="fill:#ffffff;fill-opacity:1" />
      <path
         inkscape:connector-curvature="0"
         id="path3402"
         d="m 6.0093429,46.414736 c -0.091537,-0.06951 -0.2123434,-0.250167 -0.2684591,-0.401458 -0.096215,-0.259402 -0.069108,-0.298679 0.4757002,-0.68927 1.1620317,-0.833099 3.1793432,-1.615369 5.062831,-1.963255 0.813417,-0.15024 2.137331,-0.213625 2.137331,-0.102328 0,0.219258 -0.333754,0.762682 -0.612433,0.997175 -0.53527,0.4504 -1.292418,0.731771 -3.3129839,1.231171 -1.0384932,0.256672 -2.16766,0.598903 -2.5092594,0.760512 -0.7059613,0.333987 -0.7446498,0.340647 -0.9727268,0.167453 z"
         style="fill:#ffffff;fill-opacity:1" />
    </g>
    <g
       id="g3433"
       transform="matrix(0.71789753,0,0,0.83515676,10.433311,1.3007207)">
      <path
         id="path3443"
         style="fill:#214478;fill-opacity:1"
         d="m 8.2165084,54.607236 c -0.09154,-0.06951 -0.2123442,-0.250167 -0.2684592,-0.401458 -0.09621,-0.259402 -0.06911,-0.298679 0.4757002,-0.68927 1.162032,-0.833099 3.1793426,-1.615369 5.0628306,-1.963255 0.813417,-0.15024 2.137331,-0.213625 2.137331,-0.102328 0,0.219258 -0.333754,0.762682 -0.612433,0.997175 -0.53527,0.4504 -1.292418,0.731771 -3.312984,1.231171 -1.038493,0.256672 -2.1676596,0.598903 -2.5092586,0.760512 -0.705962,0.333987 -0.74465,0.340647 -0.972727,0.167453 z M 6.6002132,47.445899 c -0.206573,-0.120318 -0.234957,-0.584721 -0.05055,-0.827132 0.306542,-0.402968 2.5289052,-0.78156 5.8323898,-0.993579 l 1.863985,-0.119631 0.233459,0.291756 c 0.128403,0.160465 0.233686,0.370327 0.233962,0.46636 0.0012,0.414991 -0.95305,0.740786 -2.620142,0.894562 -0.643954,0.0594 -1.727094,0.172994 -2.4069776,0.252433 -1.432753,0.167406 -2.8317702,0.183377 -3.0861232,0.03523 z m 1.030147,-6.297365 c -0.773118,-0.20848 -1.386716,-0.752977 -1.250007,-1.109235 0.112469,-0.293091 0.627228,-0.373161 2.8233362,-0.439166 3.7593996,-0.11299 4.4037276,-0.09889 4.7852166,0.104724 0.341114,0.182064 0.682344,0.77814 0.587276,1.025883 -0.08856,0.230772 -1.711248,0.387347 -3.299823,0.318403 -1.113913,-0.04834 -1.6360146,-0.02747 -2.1737376,0.08689 -0.825993,0.175669 -0.865933,0.176008 -1.4722612,0.01251 z M 12.792947,35.055035 C 11.507163,34.869303 10.52576,34.786273 9.4564544,34.772756 8.0543874,34.755036 7.5281912,34.590748 6.9175132,33.98007 c -0.629526,-0.629525 -0.181745,-0.922395 1.2751182,-0.833988 0.556082,0.03374 1.8527646,0.09965 2.8815166,0.146466 1.028752,0.04681 2.084692,0.140629 2.346534,0.208481 0.639099,0.165615 1.18441,0.652207 1.257898,1.122448 l 0.05685,0.363792 -0.541542,0.06503 c -0.554138,0.06654 -0.953832,0.06732 -1.400943,0.0027 z m -0.859898,-6.488372 c -1.446088,-0.483372 -2.8421206,-1.004126 -3.1022966,-1.15723 -0.710661,-0.418201 -0.764655,-0.840631 -0.161229,-1.261412 0.278073,-0.193905 0.352116,-0.20709 0.529813,-0.09434 0.420079,0.266539 1.3611446,0.576642 2.9478796,0.971395 0.896034,0.222918 1.851433,0.500586 2.123111,0.617041 0.931955,0.399482 1.45469,0.959074 1.45469,1.557256 0,0.247097 -0.02411,0.257544 -0.581359,0.251968 -0.451364,-0.0045 -1.169273,-0.202336 -3.210609,-0.884676 z m 48.152154,15.340531 c -0.09731,-0.0567 -0.253912,-0.248662 -0.347995,-0.426625 -0.146487,-0.277104 -0.170829,-0.657514 -0.169402,-2.649006 0.0017,-2.508482 0.06785,-2.965493 0.503784,-3.483553 0.208084,-0.247286 0.337591,-0.307914 0.657776,-0.307914 0.458694,0 0.986059,0.195644 1.189901,0.44144 0.198636,0.239514 0.219415,5.425374 0.02362,5.898032 -0.211684,0.511033 -1.337287,0.830734 -1.857691,0.527626 z m -42.428321,0.81083 c -0.197543,-2.162564 -0.246917,-4.874577 -0.121201,-6.658393 0.131718,-1.869127 0.226634,-2.857976 0.270126,-2.814475 0.01619,0.01618 -0.01337,1.302473 -0.06555,2.858455 -0.06385,1.901863 -0.05935,3.652357 0.01379,5.341104 0.05977,1.381623 0.08958,2.531123 0.06625,2.554446 -0.02332,0.02332 -0.09681,-0.55319 -0.163306,-1.281137 z m 17.559707,7.836335 c -0.341765,-0.18549 -0.687207,-0.76714 -1.138851,-1.917578 -0.339409,-0.864551 -0.761758,-1.463982 -1.031497,-1.463982 -0.07277,0 -2.964701,0.711631 -6.426582,1.581403 -3.46188,0.869769 -6.465547,1.602569 -6.674818,1.628441 -0.771359,0.09536 -1.240135,-0.577805 -1.586724,-2.278557 -0.28204,-1.383992 -0.24716,-1.648486 0.08935,-0.677323 0.482821,1.393538 0.858027,1.970364 1.281659,1.970364 0.488621,0 0.914577,-0.788708 1.283198,-2.375987 0.543001,-2.338177 0.679326,-3.850895 0.672933,-7.467269 -0.011,-6.118594 -0.203441,-8.464083 -0.8516,-10.369775 -0.396763,-1.166536 -0.671579,-1.524727 -1.169818,-1.524727 -0.425542,0 -1.022548,0.99423 -1.206657,2.009525 -0.06302,0.34752 -0.154671,0.731385 -0.203673,0.853029 -0.156725,0.389029 -0.11868,-0.565589 0.05629,-1.412728 0.276648,-1.339339 0.978392,-2.56199 1.470462,-2.56199 0.09543,0 0.894101,0.178732 1.774795,0.397182 0.880695,0.21845 3.671407,0.90473 6.201581,1.525069 2.530175,0.620341 7.42117,1.827056 10.868879,2.68159 3.447709,0.854534 6.700789,1.649409 7.229068,1.766388 0.528278,0.116972 3.212637,0.774558 5.965244,1.461283 2.752607,0.686725 5.517425,1.350504 6.144042,1.475063 l 1.139301,0.226472 -0.02715,2.279649 -0.02715,2.279651 -0.606636,0.183508 c -2.823022,0.853974 -10.54869,2.712018 -11.273303,2.711261 -0.665535,-7.06e-4 -1.175108,0.266401 -1.276125,0.668886 -0.03755,0.149641 -0.01549,0.617397 0.04853,1.039469 0.201516,1.324125 0.119864,2.239014 -0.21946,2.458717 -0.240086,0.155451 -2.892817,0.984429 -4.619264,1.443521 -2.641594,0.702445 -3.828311,1.053793 -4.47089,1.323688 -0.659597,0.277041 -1.02218,0.299014 -1.415109,0.08574 z m 2.802265,-1.120388 c 0.444867,-0.133532 1.693974,-0.469507 2.775795,-0.746593 2.107927,-0.539906 3.087952,-0.929775 3.631207,-1.444553 0.624893,-0.592132 0.780369,-1.382828 0.457969,-2.329023 l -0.16188,-0.475114 -0.520577,0.06022 c -1.000941,0.115775 -2.087178,0.362924 -4.278024,0.973307 -1.725728,0.480801 -2.351294,0.613146 -2.864985,0.606117 -0.828284,-0.01138 -1.321415,0.118408 -1.717833,0.451977 -1.017378,0.856069 -0.739733,2.409831 0.555115,3.106535 0.372656,0.200509 0.969333,0.143494 2.123224,-0.202874 z"
         inkscape:connector-curvature="0" />
    </g>
    <path
       id="path3370"
       style="fill:#ffffff;fill-opacity:1"
       d="m 20.109143,35.647281 c -0.141816,-1.80608 -0.177261,-4.071036 -0.08701,-5.560802 0.09456,-1.561014 0.1627,-2.386858 0.193923,-2.350528 0.01162,0.01351 -0.0096,1.087769 -0.04706,2.387258 -0.04584,1.588354 -0.04261,3.050291 0.0099,4.460659 0.04291,1.153872 0.06431,2.113885 0.04756,2.133363 -0.01674,0.01948 -0.0695,-0.462 -0.117237,-1.06995 z m 12.60607,6.544568 c -0.245352,-0.154913 -0.493344,-0.640682 -0.817578,-1.601478 -0.243661,-0.722036 -0.546864,-1.222655 -0.740509,-1.222655 -0.05224,0 -2.128352,0.594324 -4.613628,1.32072 -2.485275,0.726393 -4.6416,1.338396 -4.791835,1.360003 -0.553757,0.07964 -0.89029,-0.482558 -1.139105,-1.902952 -0.202476,-1.15585 -0.177436,-1.376744 0.06414,-0.565671 0.346616,1.163823 0.615976,1.645563 0.9201,1.645563 0.35078,0 0.656573,-0.658695 0.921205,-1.984322 0.389819,-1.952744 0.487686,-3.216101 0.483097,-6.23634 -0.0079,-5.109985 -0.14605,-7.068836 -0.611362,-8.660388 -0.284835,-0.97424 -0.482125,-1.273386 -0.839809,-1.273386 -0.305496,0 -0.734085,0.830338 -0.866256,1.678269 -0.04524,0.290233 -0.111038,0.610821 -0.146217,0.712413 -0.112512,0.3249 -0.0852,-0.472356 0.04041,-1.17985 0.198605,-1.118558 0.702385,-2.139663 1.055641,-2.139663 0.06851,0 0.641873,0.149269 1.274121,0.331709 0.632249,0.18244 2.635694,0.755592 4.4521,1.273672 1.816406,0.518082 5.327639,1.525878 7.802741,2.239548 2.475102,0.71367 4.81048,1.377515 5.18973,1.475211 0.37925,0.09769 2.306344,0.646877 4.282434,1.2204 1.97609,0.573523 3.960946,1.127883 4.410793,1.231909 l 0.817901,0.18914 -0.01949,1.903864 -0.01949,1.903866 -0.435503,0.153258 c -2.02664,0.713202 -7.572878,2.26496 -8.093076,2.264328 -0.477786,-5.9e-4 -0.843607,0.222486 -0.916127,0.558624 -0.02696,0.124974 -0.01112,0.515624 0.03484,0.86812 0.144668,1.105852 0.08605,1.869928 -0.15755,2.053414 -0.172357,0.129826 -2.076746,0.822153 -3.316158,1.205566 -1.896394,0.586652 -2.748335,0.880083 -3.209641,1.105487 -0.473523,0.231373 -0.73382,0.249724 -1.015903,0.07161 z m 2.011739,-0.9357 c 0.319369,-0.11152 1.2161,-0.392112 1.992737,-0.623522 1.513275,-0.450906 2.216833,-0.776508 2.606834,-1.206428 0.448609,-0.494523 0.560225,-1.154878 0.328775,-1.945099 l -0.116213,-0.396795 -0.373721,0.05029 c -0.718573,0.09669 -1.49838,0.303098 -3.071183,0.812864 -1.238896,0.401544 -1.687988,0.512073 -2.056766,0.506202 -0.594623,-0.0095 -0.94864,0.09889 -1.233228,0.377472 -0.730373,0.714952 -0.531052,2.012587 0.398516,2.594444 0.267529,0.167456 0.695882,0.11984 1.524257,-0.169432 z"
       inkscape:connector-curvature="0" />
    <g
       transform="matrix(0.71789753,0,0,0.83515676,9.0178292,5.1427425)"
       id="g3417">
      <path
         style="fill:#ffffff;fill-opacity:1"
         d="M 9.725884,20.374163 C 8.2797962,19.890791 6.8837629,19.370037 6.6235875,19.216933 5.9129259,18.798732 5.8589322,18.376302 6.4623581,17.955521 c 0.2780731,-0.193905 0.3521163,-0.20709 0.5298131,-0.09434 0.4200787,0.266539 1.3611445,0.576642 2.9478803,0.971395 0.8960335,0.222918 1.8514325,0.500586 2.1231105,0.617041 0.931955,0.399482 1.45469,0.959074 1.45469,1.557256 0,0.247097 -0.02411,0.257544 -0.581359,0.251968 -0.451364,-0.0045 -1.169273,-0.202336 -3.210609,-0.884676 z"
         id="path3419"
         inkscape:connector-curvature="0" />
      <path
         style="fill:#ffffff;fill-opacity:1"
         d="M 10.585782,26.862535 C 9.2999978,26.676803 8.3185947,26.593773 7.2492891,26.580256 5.8472226,26.562533 5.3210261,26.398248 4.7103477,25.78757 4.0808228,25.158045 4.5286027,24.865175 5.985466,24.953582 c 0.5560822,0.03374 1.8527646,0.09965 2.8815166,0.146466 1.028752,0.04681 2.0846924,0.140629 2.3465344,0.208481 0.639099,0.165615 1.18441,0.652207 1.257898,1.122448 l 0.05685,0.363792 -0.541542,0.06503 c -0.554138,0.06654 -0.953832,0.06732 -1.400943,0.0027 z"
         id="path3421"
         inkscape:connector-curvature="0" />
      <path
         style="fill:#ffffff;fill-opacity:1"
         d="m 5.4231952,32.956034 c -0.7731179,-0.20848 -1.386716,-0.752977 -1.2500068,-1.109235 0.1124695,-0.293091 0.627228,-0.373161 2.8233361,-0.439166 3.7593995,-0.11299 4.4037275,-0.09889 4.7852165,0.104724 0.341114,0.182064 0.682344,0.77814 0.587276,1.025883 -0.08856,0.230772 -1.711248,0.387347 -3.2998227,0.318403 -1.1139137,-0.04834 -1.6360151,-0.02747 -2.1737378,0.08689 -0.8259938,0.175669 -0.8659333,0.176008 -1.4722613,0.01251 z"
         id="path3423"
         inkscape:connector-curvature="0" />
      <path
         style="fill:#ffffff;fill-opacity:1"
         d="M 4.393049,39.253399 C 4.1864754,39.133081 4.1580919,38.668678 4.342496,38.426267 4.6490376,38.023299 6.8714,37.644707 10.174885,37.432688 l 1.863985,-0.119631 0.233459,0.291756 c 0.128403,0.160465 0.233686,0.370327 0.233962,0.46636 0.0012,0.414991 -0.95305,0.740786 -2.6201422,0.894562 -0.6439538,0.0594 -1.7270936,0.172994 -2.4069775,0.252433 -1.4327532,0.167406 -2.8317706,0.183377 -3.0861224,0.03523 z"
         id="path3425"
         inkscape:connector-curvature="0" />
      <path
         style="fill:#ffffff;fill-opacity:1"
         d="m 6.0093429,46.414736 c -0.091537,-0.06951 -0.2123434,-0.250167 -0.2684591,-0.401458 -0.096215,-0.259402 -0.069108,-0.298679 0.4757002,-0.68927 1.1620317,-0.833099 3.1793432,-1.615369 5.062831,-1.963255 0.813417,-0.15024 2.137331,-0.213625 2.137331,-0.102328 0,0.219258 -0.333754,0.762682 -0.612433,0.997175 -0.53527,0.4504 -1.292418,0.731771 -3.3129839,1.231171 -1.0384932,0.256672 -2.16766,0.598903 -2.5092594,0.760512 -0.7059613,0.333987 -0.7446498,0.340647 -0.9727268,0.167453 z"
         id="path3427"
         inkscape:connector-curvature="0" />
    </g>
    <path
       inkscape:connector-curvature="0"
       id="path3415"
       d="m 50.56833,34.970111 c -0.06986,-0.04735 -0.182283,-0.207672 -0.249825,-0.356299 -0.105163,-0.231425 -0.122638,-0.549127 -0.121613,-2.212335 0.0012,-2.094976 0.04871,-2.476652 0.361665,-2.909313 0.149383,-0.206523 0.242356,-0.257157 0.472216,-0.257157 0.329295,0 0.707889,0.163394 0.854227,0.368672 0.1426,0.200032 0.157517,4.531038 0.01696,4.925781 -0.151967,0.426793 -0.960035,0.693793 -1.333632,0.440651 z"
       style="fill:#ffffff;fill-opacity:1" />
  </g>
</svg>
