<?xml version="1.0" encoding="UTF-8" standalone="no"?>
<!-- Created with Inkscape (http://www.inkscape.org/) -->

<svg
   xmlns:dc="http://purl.org/dc/elements/1.1/"
   xmlns:cc="http://creativecommons.org/ns#"
   xmlns:rdf="http://www.w3.org/1999/02/22-rdf-syntax-ns#"
   xmlns:svg="http://www.w3.org/2000/svg"
   xmlns="http://www.w3.org/2000/svg"
   xmlns:sodipodi="http://sodipodi.sourceforge.net/DTD/sodipodi-0.dtd"
   xmlns:inkscape="http://www.inkscape.org/namespaces/inkscape"
   width="64"
   height="64"
   id="svg3344"
   version="1.1"
   inkscape:version="0.91 r13725"
   viewBox="0 0 64 64"
   sodipodi:docname="Grid-icon-2.svg">
  <defs
     id="defs3346" />
  <sodipodi:namedview
     id="base"
     pagecolor="#ffffff"
     bordercolor="#666666"
     borderopacity="1.0"
     inkscape:pageopacity="0.0"
     inkscape:pageshadow="2"
     inkscape:zoom="9.78125"
     inkscape:cx="20.804496"
     inkscape:cy="32"
     inkscape:current-layer="layer4"
     showgrid="true"
     inkscape:document-units="px"
     inkscape:grid-bbox="true"
     showguides="true"
     inkscape:window-width="1536"
     inkscape:window-height="801"
     inkscape:window-x="-8"
     inkscape:window-y="-8"
     inkscape:window-maximized="1">
    <inkscape:grid
       type="xygrid"
       id="grid3352" />
  </sodipodi:namedview>
  <metadata
     id="metadata3349">
    <rdf:RDF>
      <cc:Work
         rdf:about="">
        <dc:format>image/svg+xml</dc:format>
        <dc:type
           rdf:resource="http://purl.org/dc/dcmitype/StillImage" />
        <dc:title></dc:title>
      </cc:Work>
    </rdf:RDF>
  </metadata>
  <g
     id="layer1"
     inkscape:label="Layer 1"
     inkscape:groupmode="layer">
    <circle
       style="fill:#185e99;fill-opacity:1"
       id="path3358"
       cx="32"
       cy="32"
       r="32" />
  </g>
  <g
     inkscape:groupmode="layer"
     id="layer4"
     inkscape:label="Foreground">
    <path
       id="rect4849"
       style="fill:#ffffff;fill-opacity:1"
       d="M 50,42.932502 50,46 18,46 18,42.932502 Z m -32,-27.607477 3.2,0 L 21.2,46 18,46 Z"
       inkscape:connector-curvature="0" />
    <g
       id="g3397"
       transform="matrix(0.79999998,0,0,0.76687437,6.0000006,4.5887841)">
      <rect
         style="fill:#ffffff;fill-opacity:1"
         id="rect3358"
         width="4"
         height="10"
         x="25.5"
         y="39" />
      <rect
         y="34"
         x="30.5"
         height="15"
         width="4"
         id="rect3360"
         style="fill:#ffffff;fill-opacity:1" />
      <rect
         style="fill:#ffffff;fill-opacity:1"
         id="rect3362"
         width="4"
         height="14"
         x="35.5"
         y="35" />
      <rect
         y="27"
         x="40.5"
         height="22"
         width="4"
         id="rect3364"
         style="fill:#ffffff;fill-opacity:1" />
      <rect
         style="fill:#ffffff;fill-opacity:1"
         id="rect3366"
         width="4"
         height="30"
         x="45.5"
         y="19" />
      <rect
         y="42.999985"
         x="20.5"
         height="6"
         width="4"
         id="rect3368"
         style="fill:#ffffff;fill-opacity:1" />
    </g>
    <path
       style="fill:#ffffff"
       d="M 42.705255,17.445578 C 41.760589,16.63885 40.815924,15.832122 39.87126,15.025393 41.050525,14.683596 42.22979,14.341797 43.409056,14 c -0.2346,1.148526 -0.469201,2.297052 -0.703801,3.445578 z m -1.238627,-2.213287 c 0.189538,0.441876 0.379077,0.883753 0.568615,1.325629 -1.887282,1.982246 -3.774562,3.964492 -5.661844,5.946737 -0.189538,-0.441876 -0.379077,-0.883753 -0.568615,-1.325629 1.887282,-1.982246 3.774563,-3.964492 5.661844,-5.946737 z m -5.00392,5.630408 c -0.02354,0.538331 -0.04706,1.076663 -0.07061,1.614994 -2.58546,1.161239 -5.170921,2.322478 -7.756381,3.483716 0.02354,-0.538331 0.04706,-1.076663 0.07061,-1.614994 2.58546,-1.161239 5.170921,-2.322477 7.756381,-3.483716 z m -7.72615,3.460193 c 0.194382,0.439939 0.388764,0.879877 0.583146,1.319816 -1.865403,2.001185 -3.730806,4.00237 -5.596209,6.003555 -0.194382,-0.439939 -0.388763,-0.879878 -0.583145,-1.319816 1.865403,-2.001185 3.730805,-4.002371 5.596208,-6.003555 z"
       id="path3382"
       inkscape:connector-curvature="0" />
    <path
       style="fill:#214478"
       d="m 45.216344,16.152516 c -0.200455,0.01064 -0.70202,0.131022 -1.509766,0.361328 -0.885623,0.25251 -1.633999,0.480982 -1.662109,0.507812 -0.02812,0.02683 0.15283,0.228705 0.40039,0.449219 l 0.449219,0.400391 -0.759765,0.791015 c -0.417418,0.434583 -1.553426,1.622977 -2.525391,2.642579 l -1.767578,1.855468 -3.496094,1.56836 c -2.845227,1.276729 -3.57345,1.645663 -3.917969,1.980468 -0.35769,0.347604 -4.497114,4.781962 -5.066406,5.427735 -0.181258,0.205614 -0.178961,0.227954 0.0918,0.855469 l 0.279297,0.646484 0.361328,-0.41211 c 0.198494,-0.226047 1.450062,-1.577895 2.78125,-3.003906 l 2.419922,-2.591797 3.539062,-1.583984 3.541016,-1.585937 2.708984,-2.835938 c 1.490393,-1.560383 2.751285,-2.837891 2.802735,-2.837891 0.05145,0 0.256317,0.143844 0.455078,0.31836 0.198762,0.174511 0.361328,0.296654 0.361328,0.271484 0,-0.02517 0.137951,-0.727665 0.306641,-1.560547 0.16869,-0.832881 0.30664,-1.570512 0.30664,-1.638672 0,-0.02072 -0.03279,-0.02894 -0.09961,-0.02539 z M 20.064,17.355641 l 0,15.285156 0,15.283203 15.949219,0 15.949219,0 0,-1.480469 0,-1.482421 -14.390625,-0.02734 -14.388672,-0.02539 -0.02734,-13.775391 -0.02539,-13.777343 -1.533203,0 -1.533203,0 z m 24.332031,3.783203 0,11.501953 0,11.501953 1.585938,0 1.583984,0 0,-11.501953 0,-11.501953 -1.583984,0 -1.585938,0 z m -3.986328,6.134766 0,8.433593 0,8.435547 1.583985,0 1.583984,0 0,-8.435547 0,-8.433593 -1.583984,0 -1.583985,0 z m -7.974609,5.417968 0,5.72461 0,5.726562 1.583984,0 1.585938,0 0,-5.726562 0,-5.72461 -1.585938,0 -1.583984,0 z m 3.986328,0.714844 0,5.369141 0,5.367187 1.585937,0 1.583985,0 0,-5.367187 0,-5.369141 -1.583985,0 -1.585937,0 z m -7.974609,3.0625 0,3.835938 0,3.83789 1.585937,0 1.585938,0 -0.02539,-3.808594 -0.02734,-3.808593 -1.558594,-0.0293 -1.560546,-0.02734 z m -3.986328,3.072266 0,2.300781 0,2.300781 1.533203,0 1.533203,0 0,-2.300781 0,-2.300781 -1.533203,0 -1.533203,0 z"
       id="path3423"
       inkscape:connector-curvature="0" />
    <path
       inkscape:connector-curvature="0"
       d="M 50,42.932502 50,46 18,46 18,42.932502 Z m -32,-27.607477 3.2,0 L 21.2,46 18,46 Z"
       style="fill:#ffffff;fill-opacity:1"
       id="path3405" />
    <g
       transform="matrix(0.79999998,0,0,0.76687437,6.0000006,4.5887841)"
       id="g3407">
      <rect
         y="39"
         x="25.5"
         height="10"
         width="4"
         id="rect3409"
         style="fill:#ffffff;fill-opacity:1" />
      <rect
         style="fill:#ffffff;fill-opacity:1"
         id="rect3411"
         width="4"
         height="15"
         x="30.5"
         y="34" />
      <rect
         y="35"
         x="35.5"
         height="14"
         width="4"
         id="rect3413"
         style="fill:#ffffff;fill-opacity:1" />
      <rect
         style="fill:#ffffff;fill-opacity:1"
         id="rect3415"
         width="4"
         height="22"
         x="40.5"
         y="27" />
      <rect
         y="19"
         x="45.5"
         height="30"
         width="4"
         id="rect3417"
         style="fill:#ffffff;fill-opacity:1" />
      <rect
         style="fill:#ffffff;fill-opacity:1"
         id="rect3419"
         width="4"
         height="6"
         x="20.5"
         y="42.999985" />
    </g>
    <path
       inkscape:connector-curvature="0"
       id="path3421"
       d="M 42.705255,17.445578 C 41.760589,16.63885 40.815924,15.832122 39.87126,15.025393 41.050525,14.683596 42.22979,14.341797 43.409056,14 c -0.2346,1.148526 -0.469201,2.297052 -0.703801,3.445578 z m -1.238627,-2.213287 c 0.189538,0.441876 0.379077,0.883753 0.568615,1.325629 -1.887282,1.982246 -3.774562,3.964492 -5.661844,5.946737 -0.189538,-0.441876 -0.379077,-0.883753 -0.568615,-1.325629 1.887282,-1.982246 3.774563,-3.964492 5.661844,-5.946737 z m -5.00392,5.630408 c -0.02354,0.538331 -0.04706,1.076663 -0.07061,1.614994 -2.58546,1.161239 -5.170921,2.322478 -7.756381,3.483716 0.02354,-0.538331 0.04706,-1.076663 0.07061,-1.614994 2.58546,-1.161239 5.170921,-2.322477 7.756381,-3.483716 z m -7.72615,3.460193 c 0.194382,0.439939 0.388764,0.879877 0.583146,1.319816 -1.865403,2.001185 -3.730806,4.00237 -5.596209,6.003555 -0.194382,-0.439939 -0.388763,-0.879878 -0.583145,-1.319816 1.865403,-2.001185 3.730805,-4.002371 5.596208,-6.003555 z"
       style="fill:#ffffff" />
  </g>
</svg>
